# xmcd
#
# Track frame offsets:
# 150
# 17409
# 27638
# 41624
# 59539
# 78102
# 91942
# 105131
# 123034
# 138052
# 152711
# 169456
# 184614
# 199013
#
# Disc length: 2831 seconds
#
#
# Revision: 0
# Processed by: cddbd v1.5.2PL0 Copyright (c) Steve Scherf et al.
# Submitted via: FreeRIP 2.951 
#
DISCID=a30b0d0e
DTITLE=25 de Abril-Τα τραγούδια της επανάστασης των Γαρυφάλλων - 25 de Abril-Τα τραγούδια της επανάστασης των Γαρυφάλλων
DYEAR=1900
DGENRE=Folk
TTITLE0=Cancao tao simples-Adriano Correia de Oliveira
TTITLE1=Eles-Manuel Freire
TTITLE2=Cancao para um novo triste-Manuel Freire
TTITLE3=Cantiga para os que partem-Antonio Bernandino
TTITLE4=Pedro Soldado-Adriano Correia de Oliveira
TTITLE5=Livre-Manuel Freire
TTITLE6=Rosa de sangue-Adriano Correia de Oliveira
TTITLE7=Nambuangongo meu amor-Paulo de Carvalho
TTITLE8=Candiga dum marginal do sec. 19-Vitorino
TTITLE9=Cancao com lagrimas-Adriano Correia de Oliveira
TTITLE10=Os ventos de Abril-Conjunto Movimento
TTITLE11=O povo unido jamais sera vencido-Luis Cilia
TTITLE12=International-O povo
TTITLE13=Canto de nossa tristeza-Γιώργος Νταλάρας
EXTD=As Cancoes da Revolucao dos cravos
EXTT0=
EXTT1=
EXTT2=
EXTT3=
EXTT4=
EXTT5=
EXTT6=
EXTT7=
EXTT8=
EXTT9=
EXTT10=
EXTT11=
EXTT12=
EXTT13=
PLAYORDER=
